<svg width="21.000000" height="20.000000" viewBox="0 0 21 20" fill="none" xmlns="http://www.w3.org/2000/svg" xmlns:xlink="http://www.w3.org/1999/xlink">
	<desc>
			Created with Pixso.
	</desc>
	<defs/>
	<path id="Vector" d="M16 20L6 20L6 7L13 0L14.25 1.25C14.36 1.36 14.46 1.52 14.53 1.72C14.61 1.92 14.65 2.11 14.65 2.3L14.65 2.64L13.55 7L19 7C19.53 7 20 7.2 20.4 7.6C20.8 8 21 8.46 21 9L21 11C21 11.11 20.98 11.24 20.96 11.37C20.93 11.5 20.9 11.63 20.85 11.75L17.85 18.79C17.7 19.13 17.45 19.41 17.1 19.65C16.75 19.88 16.38 20 16 20ZM4 7L4 20L0 20L0 7L4 7Z" fill="#F8FCFF" fill-opacity="1.000000" fill-rule="nonzero"/>
</svg>
